<?xml version="1.0" encoding="UTF-8" standalone="no"?>
<!-- Created with Inkscape (http://www.inkscape.org/) -->

<svg
   xmlns:dc="http://purl.org/dc/elements/1.1/"
   xmlns:cc="http://creativecommons.org/ns#"
   xmlns:rdf="http://www.w3.org/1999/02/22-rdf-syntax-ns#"
   xmlns:svg="http://www.w3.org/2000/svg"
   xmlns="http://www.w3.org/2000/svg"
   xmlns:sodipodi="http://sodipodi.sourceforge.net/DTD/sodipodi-0.dtd"
   xmlns:inkscape="http://www.inkscape.org/namespaces/inkscape"
   width="1052.3622"
   height="744.09448"
   id="svg2"
   version="1.1"
   inkscape:version="0.48.4 r9939"
   sodipodi:docname="VetoresDeSuporteSVM_casoNaoSeparavel.svg">
  <defs
     id="defs4">
    <inkscape:path-effect
       is_visible="true"
       id="path-effect3110"
       effect="spiro" />
    <inkscape:path-effect
       effect="spiro"
       id="path-effect3108"
       is_visible="true" />
    <inkscape:path-effect
       is_visible="true"
       id="path-effect3106"
       effect="spiro" />
    <inkscape:path-effect
       is_visible="true"
       id="path-effect3104"
       effect="spiro" />
    <inkscape:path-effect
       effect="spiro"
       id="path-effect3102"
       is_visible="true" />
    <inkscape:path-effect
       effect="spiro"
       id="path-effect4366"
       is_visible="true" />
    <inkscape:path-effect
       is_visible="true"
       id="path-effect4362"
       effect="spiro" />
    <inkscape:path-effect
       effect="spiro"
       id="path-effect4340"
       is_visible="true" />
    <inkscape:path-effect
       is_visible="true"
       id="path-effect4336"
       effect="spiro" />
    <inkscape:path-effect
       effect="spiro"
       id="path-effect4332"
       is_visible="true" />
    <inkscape:path-effect
       effect="spiro"
       id="path-effect5763"
       is_visible="true" />
    <inkscape:path-effect
       is_visible="true"
       id="path-effect5761"
       effect="spiro" />
    <inkscape:path-effect
       effect="spiro"
       id="path-effect5347"
       is_visible="true" />
    <inkscape:path-effect
       is_visible="true"
       id="path-effect5343"
       effect="spiro" />
    <marker
       inkscape:stockid="TriangleInL"
       orient="auto"
       refY="0.0"
       refX="0.0"
       id="TriangleInL"
       style="overflow:visible">
      <path
         id="path3898"
         d="M 5.77,0.0 L -2.88,5.0 L -2.88,-5.0 L 5.77,0.0 z "
         style="fill-rule:evenodd;stroke:#000000;stroke-width:1.0pt"
         transform="scale(-0.8)" />
    </marker>
    <marker
       inkscape:stockid="TriangleOutL"
       orient="auto"
       refY="0.0"
       refX="0.0"
       id="TriangleOutL"
       style="overflow:visible">
      <path
         id="path3907"
         d="M 5.77,0.0 L -2.88,5.0 L -2.88,-5.0 L 5.77,0.0 z "
         style="fill-rule:evenodd;stroke:#000000;stroke-width:1.0pt"
         transform="scale(0.8)" />
    </marker>
    <inkscape:path-effect
       is_visible="true"
       id="path-effect2991"
       effect="spiro" />
    <inkscape:path-effect
       effect="spiro"
       id="path-effect2987"
       is_visible="true" />
  </defs>
  <sodipodi:namedview
     id="base"
     pagecolor="#ffffff"
     bordercolor="#666666"
     borderopacity="1.0"
     inkscape:pageopacity="0.0"
     inkscape:pageshadow="2"
     inkscape:zoom="1.979899"
     inkscape:cx="529.79991"
     inkscape:cy="367.58849"
     inkscape:document-units="px"
     inkscape:current-layer="layer1"
     showgrid="false"
     inkscape:window-width="1305"
     inkscape:window-height="744"
     inkscape:window-x="61"
     inkscape:window-y="24"
     inkscape:window-maximized="1" />
  <metadata
     id="metadata7">
    <rdf:RDF>
      <cc:Work
         rdf:about="">
        <dc:format>image/svg+xml</dc:format>
        <dc:type
           rdf:resource="http://purl.org/dc/dcmitype/StillImage" />
        <dc:title></dc:title>
      </cc:Work>
    </rdf:RDF>
  </metadata>
  <g
     inkscape:label="Layer 1"
     inkscape:groupmode="layer"
     id="layer1"
     transform="translate(0,-308.2677)">
    <path
       inkscape:connector-curvature="0"
       inkscape:original-d="m 313.8019,733.79075 175.49807,0"
       inkscape:path-effect="#path-effect5761"
       id="path5723"
       d="m 313.8019,733.79075 175.49807,0"
       style="fill:none;stroke:#000000;stroke-width:0.84124565px;stroke-linecap:butt;stroke-linejoin:miter;stroke-opacity:1;marker-start:url(#TriangleInL);marker-end:url(#TriangleOutL)" />
    <path
       style="fill:none;stroke:#000000;stroke-width:0.84228903px;stroke-linecap:butt;stroke-linejoin:miter;stroke-opacity:1;marker-start:url(#TriangleInL);marker-mid:none;marker-end:url(#TriangleOutL)"
       d="m 392.9247,596.67976 0,183.25116"
       id="path5725"
       inkscape:path-effect="#path-effect5763"
       inkscape:original-d="m 392.9247,596.67976 0,183.25116"
       inkscape:connector-curvature="0" />
    <path
       transform="matrix(0.66373999,0,0,0.66373999,125.94447,452.0822)"
       d="m 459.28572,364.45163 c 0,2.95867 -2.71827,5.35714 -6.07143,5.35714 -3.35315,0 -6.07142,-2.39847 -6.07142,-5.35714 0,-2.95867 2.71827,-5.35714 6.07142,-5.35714 3.35316,0 6.07143,2.39847 6.07143,5.35714 z"
       sodipodi:ry="5.3571429"
       sodipodi:rx="6.0714288"
       sodipodi:cy="364.45163"
       sodipodi:cx="453.21429"
       id="path4191"
       style="fill:none;fill-opacity:1;fill-rule:nonzero;stroke:#000000;stroke-width:1;stroke-linecap:round;stroke-linejoin:bevel;stroke-miterlimit:4;stroke-opacity:1;stroke-dasharray:none;stroke-dashoffset:0"
       sodipodi:type="arc" />
    <path
       sodipodi:type="arc"
       style="fill:none;fill-opacity:1;fill-rule:nonzero;stroke:#000000;stroke-width:1;stroke-linecap:round;stroke-linejoin:bevel;stroke-miterlimit:4;stroke-opacity:1;stroke-dasharray:none;stroke-dashoffset:0"
       id="path4204"
       sodipodi:cx="453.21429"
       sodipodi:cy="364.45163"
       sodipodi:rx="6.0714288"
       sodipodi:ry="5.3571429"
       d="m 459.28572,364.45163 c 0,2.95867 -2.71827,5.35714 -6.07143,5.35714 -3.35315,0 -6.07142,-2.39847 -6.07142,-5.35714 0,-2.95867 2.71827,-5.35714 6.07142,-5.35714 3.35316,0 6.07143,2.39847 6.07143,5.35714 z"
       transform="matrix(0.66373999,0,0,0.66373999,111.29726,480.36648)" />
    <path
       transform="matrix(0.66373999,0,0,0.66373999,130.49015,481.88171)"
       d="m 459.28572,364.45163 c 0,2.95867 -2.71827,5.35714 -6.07143,5.35714 -3.35315,0 -6.07142,-2.39847 -6.07142,-5.35714 0,-2.95867 2.71827,-5.35714 6.07142,-5.35714 3.35316,0 6.07143,2.39847 6.07143,5.35714 z"
       sodipodi:ry="5.3571429"
       sodipodi:rx="6.0714288"
       sodipodi:cy="364.45163"
       sodipodi:cx="453.21429"
       id="path4206"
       style="fill:none;fill-opacity:1;fill-rule:nonzero;stroke:#000000;stroke-width:1;stroke-linecap:round;stroke-linejoin:bevel;stroke-miterlimit:4;stroke-opacity:1;stroke-dasharray:none;stroke-dashoffset:0"
       sodipodi:type="arc" />
    <path
       sodipodi:type="arc"
       style="fill:none;fill-opacity:1;fill-rule:nonzero;stroke:#000000;stroke-width:1;stroke-linecap:round;stroke-linejoin:bevel;stroke-miterlimit:4;stroke-opacity:1;stroke-dasharray:none;stroke-dashoffset:0"
       id="path4224"
       sodipodi:cx="453.21429"
       sodipodi:cy="364.45163"
       sodipodi:rx="6.0714288"
       sodipodi:ry="5.3571429"
       d="m 459.28572,364.45163 c 0,2.95867 -2.71827,5.35714 -6.07143,5.35714 -3.35315,0 -6.07142,-2.39847 -6.07142,-5.35714 0,-2.95867 2.71827,-5.35714 6.07142,-5.35714 3.35316,0 6.07143,2.39847 6.07143,5.35714 z"
       transform="matrix(0.66373999,0,0,0.66373999,153.21859,436.42484)" />
    <path
       sodipodi:type="arc"
       style="fill:none;fill-opacity:1;fill-rule:nonzero;stroke:#000000;stroke-width:1;stroke-linecap:round;stroke-linejoin:bevel;stroke-miterlimit:4;stroke-opacity:1;stroke-dasharray:none;stroke-dashoffset:0"
       id="path4228"
       sodipodi:cx="453.21429"
       sodipodi:cy="364.45163"
       sodipodi:rx="6.0714288"
       sodipodi:ry="5.3571429"
       d="m 459.28572,364.45163 c 0,2.95867 -2.71827,5.35714 -6.07143,5.35714 -3.35315,0 -6.07142,-2.39847 -6.07142,-5.35714 0,-2.95867 2.71827,-5.35714 6.07142,-5.35714 3.35316,0 6.07143,2.39847 6.07143,5.35714 z"
       transform="matrix(0.66373999,0,0,0.66373999,151.19828,455.11267)" />
    <path
       sodipodi:type="arc"
       style="fill:none;fill-opacity:1;fill-rule:nonzero;stroke:#000000;stroke-width:1;stroke-linecap:round;stroke-linejoin:bevel;stroke-miterlimit:4;stroke-opacity:1;stroke-dasharray:none;stroke-dashoffset:0"
       id="path4189-0"
       sodipodi:cx="453.21429"
       sodipodi:cy="364.45163"
       sodipodi:rx="6.0714288"
       sodipodi:ry="5.3571429"
       d="m 459.28572,364.45163 c 0,2.95867 -2.71827,5.35714 -6.07143,5.35714 -3.35315,0 -6.07142,-2.39847 -6.07142,-5.35714 0,-2.95867 2.71827,-5.35714 6.07142,-5.35714 3.35316,0 6.07143,2.39847 6.07143,5.35714 z"
       transform="matrix(0.66373999,0,0,0.66373999,161.32833,448.32137)" />
    <path
       transform="matrix(0.66373999,0,0,0.66373999,176.48062,449.8366)"
       d="m 459.28572,364.45163 c 0,2.95867 -2.71827,5.35714 -6.07143,5.35714 -3.35315,0 -6.07142,-2.39847 -6.07142,-5.35714 0,-2.95867 2.71827,-5.35714 6.07142,-5.35714 3.35316,0 6.07143,2.39847 6.07143,5.35714 z"
       sodipodi:ry="5.3571429"
       sodipodi:rx="6.0714288"
       sodipodi:cy="364.45163"
       sodipodi:cx="453.21429"
       id="path4191-4"
       style="fill:none;fill-opacity:1;fill-rule:nonzero;stroke:#000000;stroke-width:1;stroke-linecap:round;stroke-linejoin:bevel;stroke-miterlimit:4;stroke-opacity:1;stroke-dasharray:none;stroke-dashoffset:0"
       sodipodi:type="arc" />
    <path
       sodipodi:type="arc"
       style="fill:none;fill-opacity:1;fill-rule:nonzero;stroke:#000000;stroke-width:1;stroke-linecap:round;stroke-linejoin:bevel;stroke-miterlimit:4;stroke-opacity:1;stroke-dasharray:none;stroke-dashoffset:0"
       id="path4204-6"
       sodipodi:cx="453.21429"
       sodipodi:cy="364.45163"
       sodipodi:rx="6.0714288"
       sodipodi:ry="5.3571429"
       d="m 459.28572,364.45163 c 0,2.95867 -2.71827,5.35714 -6.07143,5.35714 -3.35315,0 -6.07142,-2.39847 -6.07142,-5.35714 0,-2.95867 2.71827,-5.35714 6.07142,-5.35714 3.35316,0 6.07143,2.39847 6.07143,5.35714 z"
       transform="matrix(0.66373999,0,0,0.66373999,155.26742,467.0092)" />
    <path
       transform="matrix(0.66373999,0,0,0.66373999,174.46031,468.52443)"
       d="m 459.28572,364.45163 c 0,2.95867 -2.71827,5.35714 -6.07143,5.35714 -3.35315,0 -6.07142,-2.39847 -6.07142,-5.35714 0,-2.95867 2.71827,-5.35714 6.07142,-5.35714 3.35316,0 6.07143,2.39847 6.07143,5.35714 z"
       sodipodi:ry="5.3571429"
       sodipodi:rx="6.0714288"
       sodipodi:cy="364.45163"
       sodipodi:cx="453.21429"
       id="path4206-6"
       style="fill:none;fill-opacity:1;fill-rule:nonzero;stroke:#000000;stroke-width:1;stroke-linecap:round;stroke-linejoin:bevel;stroke-miterlimit:4;stroke-opacity:1;stroke-dasharray:none;stroke-dashoffset:0"
       sodipodi:type="arc" />
    <rect
       style="fill:none;stroke:#000000;stroke-width:1;stroke-linecap:round;stroke-linejoin:bevel;stroke-miterlimit:4;stroke-opacity:1;stroke-dasharray:none;stroke-dashoffset:0"
       id="rect4243"
       width="8.0812206"
       height="8.0812206"
       x="343.45187"
       y="655.87732" />
    <rect
       y="686.76404"
       x="384.216"
       height="8.0812206"
       width="8.0812206"
       id="rect4256"
       style="fill:#000000;stroke:#000000;stroke-width:1;stroke-linecap:round;stroke-linejoin:bevel;stroke-miterlimit:4;stroke-opacity:1;stroke-dasharray:none;stroke-dashoffset:0" />
    <rect
       y="634.66412"
       x="396.98996"
       height="8.0812206"
       width="8.0812206"
       id="rect4270"
       style="fill:none;stroke:#000000;stroke-width:1;stroke-linecap:round;stroke-linejoin:bevel;stroke-miterlimit:4;stroke-opacity:1;stroke-dasharray:none;stroke-dashoffset:0" />
    <rect
       y="638.19958"
       x="373.75647"
       height="8.0812206"
       width="8.0812206"
       id="rect4288"
       style="fill:none;stroke:#000000;stroke-width:1;stroke-linecap:round;stroke-linejoin:bevel;stroke-miterlimit:4;stroke-opacity:1;stroke-dasharray:none;stroke-dashoffset:0" />
    <rect
       y="612.44073"
       x="422.24377"
       height="8.0812206"
       width="8.0812206"
       id="rect4314"
       style="fill:none;stroke:#000000;stroke-width:1;stroke-linecap:round;stroke-linejoin:bevel;stroke-miterlimit:4;stroke-opacity:1;stroke-dasharray:none;stroke-dashoffset:0" />
    <rect
       style="fill:none;stroke:#000000;stroke-width:1;stroke-linecap:round;stroke-linejoin:bevel;stroke-miterlimit:4;stroke-opacity:1;stroke-dasharray:none;stroke-dashoffset:0"
       id="rect4316"
       width="8.0812206"
       height="8.0812206"
       x="387.89856"
       y="648.30115" />
    <rect
       style="fill:none;stroke:#000000;stroke-width:1;stroke-linecap:round;stroke-linejoin:bevel;stroke-miterlimit:4;stroke-opacity:1;stroke-dasharray:none;stroke-dashoffset:0"
       id="rect4318"
       width="8.0812206"
       height="8.0812206"
       x="371.23108"
       y="662.4433" />
    <rect
       y="690.72754"
       x="336.88586"
       height="8.0812206"
       width="8.0812206"
       id="rect4320"
       style="fill:none;stroke:#000000;stroke-width:1;stroke-linecap:round;stroke-linejoin:bevel;stroke-miterlimit:4;stroke-opacity:1;stroke-dasharray:none;stroke-dashoffset:0" />
    <rect
       style="fill:none;stroke:#000000;stroke-width:1;stroke-linecap:round;stroke-linejoin:bevel;stroke-miterlimit:4;stroke-opacity:1;stroke-dasharray:none;stroke-dashoffset:0"
       id="rect4322"
       width="8.0812206"
       height="8.0812206"
       x="399.01025"
       y="614.96613" />
    <rect
       y="635.67426"
       x="347.99756"
       height="8.0812206"
       width="8.0812206"
       id="rect4324"
       style="fill:none;stroke:#000000;stroke-width:1;stroke-linecap:round;stroke-linejoin:bevel;stroke-miterlimit:4;stroke-opacity:1;stroke-dasharray:none;stroke-dashoffset:0" />
    <rect
       y="676.58545"
       x="341.93665"
       height="8.0812206"
       width="8.0812206"
       id="rect4326"
       style="fill:none;stroke:#000000;stroke-width:1;stroke-linecap:round;stroke-linejoin:bevel;stroke-miterlimit:4;stroke-opacity:1;stroke-dasharray:none;stroke-dashoffset:0" />
    <rect
       style="fill:none;stroke:#000000;stroke-width:1;stroke-linecap:round;stroke-linejoin:bevel;stroke-miterlimit:4;stroke-opacity:1;stroke-dasharray:none;stroke-dashoffset:0"
       id="rect4328"
       width="8.0812206"
       height="8.0812206"
       x="342.94678"
       y="702.84943" />
    <path
       style="fill:#000000;stroke:#000000;stroke-width:1.13798749000000021;stroke-linecap:butt;stroke-linejoin:miter;stroke-miterlimit:4;stroke-opacity:1;stroke-dasharray:2.27597496000000010, 1.13798748000000005;stroke-dashoffset:0"
       d="M 324.59251,775.25885 460.81311,616.04744"
       id="path4330"
       inkscape:path-effect="#path-effect4332"
       inkscape:original-d="m 324.59251,775.25885 c 2.29908,-5.17293 136.2206,-159.21141 136.2206,-159.21141"
       inkscape:connector-curvature="0" />
    <text
       xml:space="preserve"
       style="font-size:10px;font-style:normal;font-variant:normal;font-weight:normal;font-stretch:normal;text-align:start;line-height:125%;letter-spacing:0px;word-spacing:0px;writing-mode:lr-tb;text-anchor:start;fill:#000000;fill-opacity:1;stroke:none;font-family:TeX Gyre Termes;-inkscape-font-specification:TeX Gyre Termes"
       x="277.79193"
       y="768.50934"
       id="text4342"
       sodipodi:linespacing="125%"><tspan
         sodipodi:role="line"
         id="tspan4344"
         x="277.79193"
         y="768.50934">Hiperplano </tspan><tspan
         sodipodi:role="line"
         x="277.79193"
         y="781.00934"
         id="tspan4346">    ótimo</tspan></text>
    <path
       inkscape:connector-curvature="0"
       inkscape:original-d="M 324.54878,755.30258 C 326.67119,750.52716 450.30139,608.3259 450.30139,608.3259"
       inkscape:path-effect="#path-effect4362"
       id="path4360"
       d="M 324.54878,755.30258 450.30139,608.3259"
       style="fill:#0000ff;stroke:#000000;stroke-width:1.05053782;stroke-linecap:butt;stroke-linejoin:miter;stroke-miterlimit:4;stroke-opacity:1;stroke-dasharray:none;stroke-dashoffset:0" />
    <path
       style="fill:#0000ff;stroke:#000000;stroke-width:1.08472812;stroke-linecap:butt;stroke-linejoin:miter;stroke-miterlimit:4;stroke-opacity:1;stroke-dasharray:none;stroke-dashoffset:0"
       d="M 340.56588,775.28548 470.41117,623.52538"
       id="path4364"
       inkscape:path-effect="#path-effect4366"
       inkscape:original-d="m 340.56588,775.28548 c 2.19148,-4.93083 129.84529,-151.7601 129.84529,-151.7601"
       inkscape:connector-curvature="0" />
    <rect
       style="fill:#ffffff;stroke:#000000;stroke-width:1;stroke-linecap:round;stroke-linejoin:bevel;stroke-miterlimit:4;stroke-opacity:1;stroke-dasharray:none;stroke-dashoffset:0"
       id="rect4272"
       width="8.0812206"
       height="8.0812206"
       x="394.21204"
       y="666.48389" />
    <rect
       style="fill:#ffffff;stroke:#000000;stroke-width:1;stroke-linecap:round;stroke-linejoin:bevel;stroke-miterlimit:4;stroke-opacity:1;stroke-dasharray:none;stroke-dashoffset:0"
       id="rect4290"
       width="8.0812206"
       height="8.0812206"
       x="370.72598"
       y="691.23267" />
    <path
       sodipodi:type="arc"
       style="fill:#ffffff;fill-opacity:1;fill-rule:nonzero;stroke:#000000;stroke-width:1;stroke-linecap:round;stroke-linejoin:bevel;stroke-miterlimit:4;stroke-opacity:1;stroke-dasharray:none;stroke-dashoffset:0"
       id="path4189"
       sodipodi:cx="453.21429"
       sodipodi:cy="364.45163"
       sodipodi:rx="6.0714288"
       sodipodi:ry="5.3571429"
       d="m 459.28572,364.45163 c 0,2.95867 -2.71827,5.35714 -6.07143,5.35714 -3.35315,0 -6.07142,-2.39847 -6.07142,-5.35714 0,-2.95867 2.71827,-5.35714 6.07142,-5.35714 3.35316,0 6.07143,2.39847 6.07143,5.35714 z"
       transform="matrix(0.66373999,0,0,0.66373999,94.377202,468.74972)" />
    <path
       transform="matrix(0.66373999,0,0,0.66373999,128.21732,429.35378)"
       d="m 459.28572,364.45163 c 0,2.95867 -2.71827,5.35714 -6.07143,5.35714 -3.35315,0 -6.07142,-2.39847 -6.07142,-5.35714 0,-2.95867 2.71827,-5.35714 6.07142,-5.35714 3.35316,0 6.07143,2.39847 6.07143,5.35714 z"
       sodipodi:ry="5.3571429"
       sodipodi:rx="6.0714288"
       sodipodi:cy="364.45163"
       sodipodi:cx="453.21429"
       id="path4226"
       style="fill:#ffffff;fill-opacity:1;fill-rule:nonzero;stroke:#000000;stroke-width:1;stroke-linecap:round;stroke-linejoin:bevel;stroke-miterlimit:4;stroke-opacity:1;stroke-dasharray:none;stroke-dashoffset:0"
       sodipodi:type="arc" />
    <rect
       style="fill:#ffffff;stroke:#000000;stroke-width:1;stroke-linecap:round;stroke-linejoin:bevel;stroke-miterlimit:4;stroke-opacity:1;stroke-dasharray:none;stroke-dashoffset:0"
       id="rect4292"
       width="8.0812206"
       height="8.0812206"
       x="427.79962"
       y="627.08795" />
    <path
       transform="matrix(0.66373999,0,0,0.66373999,151.45082,401.57458)"
       d="m 459.28572,364.45163 c 0,2.95867 -2.71827,5.35714 -6.07143,5.35714 -3.35315,0 -6.07142,-2.39847 -6.07142,-5.35714 0,-2.95867 2.71827,-5.35714 6.07142,-5.35714 3.35316,0 6.07143,2.39847 6.07143,5.35714 z"
       sodipodi:ry="5.3571429"
       sodipodi:rx="6.0714288"
       sodipodi:cy="364.45163"
       sodipodi:cx="453.21429"
       id="path4222"
       style="fill:#ffffff;fill-opacity:1;fill-rule:nonzero;stroke:#000000;stroke-width:1;stroke-linecap:round;stroke-linejoin:bevel;stroke-miterlimit:4;stroke-opacity:1;stroke-dasharray:none;stroke-dashoffset:0"
       sodipodi:type="arc" />
    <path
       style="fill:none;stroke:#000000;stroke-width:0.86119395px;stroke-linecap:butt;stroke-linejoin:miter;stroke-opacity:1;marker-start:url(#TriangleInL);marker-end:url(#TriangleOutL)"
       d="m 517.27458,733.79075 184.40984,0"
       id="path3032"
       inkscape:path-effect="#path-effect3102"
       inkscape:original-d="m 517.27458,733.79075 184.40984,0"
       inkscape:connector-curvature="0" />
    <path
       inkscape:connector-curvature="0"
       inkscape:original-d="m 600.49613,596.87036 0,180.26535"
       inkscape:path-effect="#path-effect3104"
       id="path3034"
       d="m 600.49613,596.87036 0,180.26535"
       style="fill:none;stroke:#000000;stroke-width:0.83490014px;stroke-linecap:butt;stroke-linejoin:miter;stroke-opacity:1;marker-start:url(#TriangleInL);marker-mid:none;marker-end:url(#TriangleOutL)" />
    <path
       sodipodi:type="arc"
       style="fill:#000000;fill-opacity:1;fill-rule:nonzero;stroke:#000000;stroke-width:1;stroke-linecap:round;stroke-linejoin:bevel;stroke-miterlimit:4;stroke-opacity:1;stroke-dasharray:none;stroke-dashoffset:0"
       id="path3036"
       sodipodi:cx="453.21429"
       sodipodi:cy="364.45163"
       sodipodi:rx="6.0714288"
       sodipodi:ry="5.3571429"
       d="m 459.28572,364.45163 a 6.0714288,5.3571429 0 1 1 -12.14285,0 6.0714288,5.3571429 0 1 1 12.14285,0 z"
       transform="matrix(0.66373999,0,0,0.66373999,296.42253,446.42176)" />
    <path
       transform="matrix(0.66373999,0,0,0.66373999,318.86869,480.36648)"
       d="m 459.28572,364.45163 c 0,2.95867 -2.71827,5.35714 -6.07143,5.35714 -3.35315,0 -6.07142,-2.39847 -6.07142,-5.35714 0,-2.95867 2.71827,-5.35714 6.07142,-5.35714 3.35316,0 6.07143,2.39847 6.07143,5.35714 z"
       sodipodi:ry="5.3571429"
       sodipodi:rx="6.0714288"
       sodipodi:cy="364.45163"
       sodipodi:cx="453.21429"
       id="path3038"
       style="fill:#ffffff;fill-opacity:1;fill-rule:nonzero;stroke:#000000;stroke-width:1;stroke-linecap:round;stroke-linejoin:bevel;stroke-miterlimit:4;stroke-opacity:1;stroke-dasharray:none;stroke-dashoffset:0"
       sodipodi:type="arc" />
    <path
       sodipodi:type="arc"
       style="fill:#ffffff;fill-opacity:1;fill-rule:nonzero;stroke:#000000;stroke-width:1;stroke-linecap:round;stroke-linejoin:bevel;stroke-miterlimit:4;stroke-opacity:1;stroke-dasharray:none;stroke-dashoffset:0"
       id="path3040"
       sodipodi:cx="453.21429"
       sodipodi:cy="364.45163"
       sodipodi:rx="6.0714288"
       sodipodi:ry="5.3571429"
       d="m 459.28572,364.45163 c 0,2.95867 -2.71827,5.35714 -6.07143,5.35714 -3.35315,0 -6.07142,-2.39847 -6.07142,-5.35714 0,-2.95867 2.71827,-5.35714 6.07142,-5.35714 3.35316,0 6.07143,2.39847 6.07143,5.35714 z"
       transform="matrix(0.66373999,0,0,0.66373999,338.06158,481.88171)" />
    <path
       transform="matrix(0.66373999,0,0,0.66373999,360.79002,436.42484)"
       d="m 459.28572,364.45163 c 0,2.95867 -2.71827,5.35714 -6.07143,5.35714 -3.35315,0 -6.07142,-2.39847 -6.07142,-5.35714 0,-2.95867 2.71827,-5.35714 6.07142,-5.35714 3.35316,0 6.07143,2.39847 6.07143,5.35714 z"
       sodipodi:ry="5.3571429"
       sodipodi:rx="6.0714288"
       sodipodi:cy="364.45163"
       sodipodi:cx="453.21429"
       id="path3042"
       style="fill:#ffffff;fill-opacity:1;fill-rule:nonzero;stroke:#000000;stroke-width:1;stroke-linecap:round;stroke-linejoin:bevel;stroke-miterlimit:4;stroke-opacity:1;stroke-dasharray:none;stroke-dashoffset:0"
       sodipodi:type="arc" />
    <path
       transform="matrix(0.66373999,0,0,0.66373999,358.76971,455.11267)"
       d="m 459.28572,364.45163 c 0,2.95867 -2.71827,5.35714 -6.07143,5.35714 -3.35315,0 -6.07142,-2.39847 -6.07142,-5.35714 0,-2.95867 2.71827,-5.35714 6.07142,-5.35714 3.35316,0 6.07143,2.39847 6.07143,5.35714 z"
       sodipodi:ry="5.3571429"
       sodipodi:rx="6.0714288"
       sodipodi:cy="364.45163"
       sodipodi:cx="453.21429"
       id="path3044"
       style="fill:#ffffff;fill-opacity:1;fill-rule:nonzero;stroke:#000000;stroke-width:1;stroke-linecap:round;stroke-linejoin:bevel;stroke-miterlimit:4;stroke-opacity:1;stroke-dasharray:none;stroke-dashoffset:0"
       sodipodi:type="arc" />
    <path
       transform="matrix(0.66373999,0,0,0.66373999,368.89976,448.32137)"
       d="m 459.28572,364.45163 c 0,2.95867 -2.71827,5.35714 -6.07143,5.35714 -3.35315,0 -6.07142,-2.39847 -6.07142,-5.35714 0,-2.95867 2.71827,-5.35714 6.07142,-5.35714 3.35316,0 6.07143,2.39847 6.07143,5.35714 z"
       sodipodi:ry="5.3571429"
       sodipodi:rx="6.0714288"
       sodipodi:cy="364.45163"
       sodipodi:cx="453.21429"
       id="path3046"
       style="fill:#ffffff;fill-opacity:1;fill-rule:nonzero;stroke:#000000;stroke-width:1;stroke-linecap:round;stroke-linejoin:bevel;stroke-miterlimit:4;stroke-opacity:1;stroke-dasharray:none;stroke-dashoffset:0"
       sodipodi:type="arc" />
    <path
       sodipodi:type="arc"
       style="fill:#ffffff;fill-opacity:1;fill-rule:nonzero;stroke:#000000;stroke-width:1;stroke-linecap:round;stroke-linejoin:bevel;stroke-miterlimit:4;stroke-opacity:1;stroke-dasharray:none;stroke-dashoffset:0"
       id="path3048"
       sodipodi:cx="453.21429"
       sodipodi:cy="364.45163"
       sodipodi:rx="6.0714288"
       sodipodi:ry="5.3571429"
       d="m 459.28572,364.45163 c 0,2.95867 -2.71827,5.35714 -6.07143,5.35714 -3.35315,0 -6.07142,-2.39847 -6.07142,-5.35714 0,-2.95867 2.71827,-5.35714 6.07142,-5.35714 3.35316,0 6.07143,2.39847 6.07143,5.35714 z"
       transform="matrix(0.66373999,0,0,0.66373999,384.05205,449.8366)" />
    <path
       transform="matrix(0.66373999,0,0,0.66373999,362.83885,467.0092)"
       d="m 459.28572,364.45163 c 0,2.95867 -2.71827,5.35714 -6.07143,5.35714 -3.35315,0 -6.07142,-2.39847 -6.07142,-5.35714 0,-2.95867 2.71827,-5.35714 6.07142,-5.35714 3.35316,0 6.07143,2.39847 6.07143,5.35714 z"
       sodipodi:ry="5.3571429"
       sodipodi:rx="6.0714288"
       sodipodi:cy="364.45163"
       sodipodi:cx="453.21429"
       id="path3050"
       style="fill:#ffffff;fill-opacity:1;fill-rule:nonzero;stroke:#000000;stroke-width:1;stroke-linecap:round;stroke-linejoin:bevel;stroke-miterlimit:4;stroke-opacity:1;stroke-dasharray:none;stroke-dashoffset:0"
       sodipodi:type="arc" />
    <path
       sodipodi:type="arc"
       style="fill:#ffffff;fill-opacity:1;fill-rule:nonzero;stroke:#000000;stroke-width:1;stroke-linecap:round;stroke-linejoin:bevel;stroke-miterlimit:4;stroke-opacity:1;stroke-dasharray:none;stroke-dashoffset:0"
       id="path3052"
       sodipodi:cx="453.21429"
       sodipodi:cy="364.45163"
       sodipodi:rx="6.0714288"
       sodipodi:ry="5.3571429"
       d="m 459.28572,364.45163 c 0,2.95867 -2.71827,5.35714 -6.07143,5.35714 -3.35315,0 -6.07142,-2.39847 -6.07142,-5.35714 0,-2.95867 2.71827,-5.35714 6.07142,-5.35714 3.35316,0 6.07143,2.39847 6.07143,5.35714 z"
       transform="matrix(0.66373999,0,0,0.66373999,382.03174,468.52443)" />
    <rect
       y="655.87732"
       x="551.02332"
       height="8.0812206"
       width="8.0812206"
       id="rect3054"
       style="fill:none;stroke:#000000;stroke-width:1;stroke-linecap:round;stroke-linejoin:bevel;stroke-miterlimit:4;stroke-opacity:1;stroke-dasharray:none;stroke-dashoffset:0" />
    <rect
       style="fill:none;stroke:#000000;stroke-width:1;stroke-linecap:round;stroke-linejoin:bevel;stroke-miterlimit:4;stroke-opacity:1;stroke-dasharray:none;stroke-dashoffset:0"
       id="rect3058"
       width="8.0812206"
       height="8.0812206"
       x="604.5614"
       y="634.66412" />
    <rect
       style="fill:none;stroke:#000000;stroke-width:1;stroke-linecap:round;stroke-linejoin:bevel;stroke-miterlimit:4;stroke-opacity:1;stroke-dasharray:none;stroke-dashoffset:0"
       id="rect3060"
       width="8.0812206"
       height="8.0812206"
       x="581.32788"
       y="638.19958" />
    <rect
       style="fill:none;stroke:#000000;stroke-width:1;stroke-linecap:round;stroke-linejoin:bevel;stroke-miterlimit:4;stroke-opacity:1;stroke-dasharray:none;stroke-dashoffset:0"
       id="rect3062"
       width="8.0812206"
       height="8.0812206"
       x="629.81519"
       y="612.44073" />
    <rect
       y="648.30115"
       x="595.46997"
       height="8.0812206"
       width="8.0812206"
       id="rect3064"
       style="fill:none;stroke:#000000;stroke-width:1;stroke-linecap:round;stroke-linejoin:bevel;stroke-miterlimit:4;stroke-opacity:1;stroke-dasharray:none;stroke-dashoffset:0" />
    <rect
       y="662.4433"
       x="578.80249"
       height="8.0812206"
       width="8.0812206"
       id="rect3066"
       style="fill:none;stroke:#000000;stroke-width:1;stroke-linecap:round;stroke-linejoin:bevel;stroke-miterlimit:4;stroke-opacity:1;stroke-dasharray:none;stroke-dashoffset:0" />
    <rect
       style="fill:none;stroke:#000000;stroke-width:1;stroke-linecap:round;stroke-linejoin:bevel;stroke-miterlimit:4;stroke-opacity:1;stroke-dasharray:none;stroke-dashoffset:0"
       id="rect3068"
       width="8.0812206"
       height="8.0812206"
       x="544.45728"
       y="690.72754" />
    <rect
       y="614.96613"
       x="606.58167"
       height="8.0812206"
       width="8.0812206"
       id="rect3070"
       style="fill:none;stroke:#000000;stroke-width:1;stroke-linecap:round;stroke-linejoin:bevel;stroke-miterlimit:4;stroke-opacity:1;stroke-dasharray:none;stroke-dashoffset:0" />
    <rect
       style="fill:none;stroke:#000000;stroke-width:1;stroke-linecap:round;stroke-linejoin:bevel;stroke-miterlimit:4;stroke-opacity:1;stroke-dasharray:none;stroke-dashoffset:0"
       id="rect3072"
       width="8.0812206"
       height="8.0812206"
       x="555.56897"
       y="635.67426" />
    <rect
       style="fill:none;stroke:#000000;stroke-width:1;stroke-linecap:round;stroke-linejoin:bevel;stroke-miterlimit:4;stroke-opacity:1;stroke-dasharray:none;stroke-dashoffset:0"
       id="rect3074"
       width="8.0812206"
       height="8.0812206"
       x="549.50806"
       y="676.58545" />
    <rect
       y="702.84943"
       x="550.51819"
       height="8.0812206"
       width="8.0812206"
       id="rect3076"
       style="fill:none;stroke:#000000;stroke-width:1;stroke-linecap:round;stroke-linejoin:bevel;stroke-miterlimit:4;stroke-opacity:1;stroke-dasharray:none;stroke-dashoffset:0" />
    <path
       inkscape:connector-curvature="0"
       inkscape:original-d="m 532.16394,775.25885 c 2.29908,-5.17293 136.2206,-159.21141 136.2206,-159.21141"
       inkscape:path-effect="#path-effect3106"
       id="path3078"
       d="M 532.16394,775.25885 668.38454,616.04744"
       style="fill:#000000;stroke:#000000;stroke-width:1.13798749000000021;stroke-linecap:butt;stroke-linejoin:miter;stroke-miterlimit:4;stroke-opacity:1;stroke-dasharray:2.27597496000000010, 1.13798748000000005;stroke-dashoffset:0" />
    <text
       sodipodi:linespacing="125%"
       id="text3080"
       y="768.50934"
       x="485.36337"
       style="font-size:10px;font-style:normal;font-variant:normal;font-weight:normal;font-stretch:normal;text-align:start;line-height:125%;letter-spacing:0px;word-spacing:0px;writing-mode:lr-tb;text-anchor:start;fill:#000000;fill-opacity:1;stroke:none;font-family:TeX Gyre Termes;-inkscape-font-specification:TeX Gyre Termes"
       xml:space="preserve"><tspan
         y="768.50934"
         x="485.36337"
         id="tspan3082"
         sodipodi:role="line">Hiperplano </tspan><tspan
         id="tspan3084"
         y="781.00934"
         x="485.36337"
         sodipodi:role="line">    ótimo</tspan></text>
    <path
       style="fill:#0000ff;stroke:#000000;stroke-width:1.05053782;stroke-linecap:butt;stroke-linejoin:miter;stroke-miterlimit:4;stroke-opacity:1;stroke-dasharray:none;stroke-dashoffset:0"
       d="M 532.12021,755.30258 657.87282,608.3259"
       id="path3086"
       inkscape:path-effect="#path-effect3108"
       inkscape:original-d="M 532.12021,755.30258 C 534.24262,750.52716 657.87282,608.3259 657.87282,608.3259"
       inkscape:connector-curvature="0" />
    <path
       inkscape:connector-curvature="0"
       inkscape:original-d="m 548.13731,775.28548 c 2.19148,-4.93083 129.84529,-151.7601 129.84529,-151.7601"
       inkscape:path-effect="#path-effect3110"
       id="path3088"
       d="M 548.13731,775.28548 677.9826,623.52538"
       style="fill:#0000ff;stroke:#000000;stroke-width:1.08472812;stroke-linecap:butt;stroke-linejoin:miter;stroke-miterlimit:4;stroke-opacity:1;stroke-dasharray:none;stroke-dashoffset:0" />
    <rect
       y="666.48389"
       x="601.78345"
       height="8.0812206"
       width="8.0812206"
       id="rect3090"
       style="fill:#ffffff;stroke:#000000;stroke-width:1;stroke-linecap:round;stroke-linejoin:bevel;stroke-miterlimit:4;stroke-opacity:1;stroke-dasharray:none;stroke-dashoffset:0" />
    <rect
       y="691.23267"
       x="578.29736"
       height="8.0812206"
       width="8.0812206"
       id="rect3092"
       style="fill:#ffffff;stroke:#000000;stroke-width:1;stroke-linecap:round;stroke-linejoin:bevel;stroke-miterlimit:4;stroke-opacity:1;stroke-dasharray:none;stroke-dashoffset:0" />
    <path
       transform="matrix(0.66373999,0,0,0.66373999,301.94863,468.74972)"
       d="m 459.28572,364.45163 c 0,2.95867 -2.71827,5.35714 -6.07143,5.35714 -3.35315,0 -6.07142,-2.39847 -6.07142,-5.35714 0,-2.95867 2.71827,-5.35714 6.07142,-5.35714 3.35316,0 6.07143,2.39847 6.07143,5.35714 z"
       sodipodi:ry="5.3571429"
       sodipodi:rx="6.0714288"
       sodipodi:cy="364.45163"
       sodipodi:cx="453.21429"
       id="path3094"
       style="fill:#ffffff;fill-opacity:1;fill-rule:nonzero;stroke:#000000;stroke-width:1;stroke-linecap:round;stroke-linejoin:bevel;stroke-miterlimit:4;stroke-opacity:1;stroke-dasharray:none;stroke-dashoffset:0"
       sodipodi:type="arc" />
    <path
       sodipodi:type="arc"
       style="fill:#ffffff;fill-opacity:1;fill-rule:nonzero;stroke:#000000;stroke-width:1;stroke-linecap:round;stroke-linejoin:bevel;stroke-miterlimit:4;stroke-opacity:1;stroke-dasharray:none;stroke-dashoffset:0"
       id="path3096"
       sodipodi:cx="453.21429"
       sodipodi:cy="364.45163"
       sodipodi:rx="6.0714288"
       sodipodi:ry="5.3571429"
       d="m 459.28572,364.45163 c 0,2.95867 -2.71827,5.35714 -6.07143,5.35714 -3.35315,0 -6.07142,-2.39847 -6.07142,-5.35714 0,-2.95867 2.71827,-5.35714 6.07142,-5.35714 3.35316,0 6.07143,2.39847 6.07143,5.35714 z"
       transform="matrix(0.66373999,0,0,0.66373999,335.78875,429.35378)" />
    <rect
       y="627.08795"
       x="635.37103"
       height="8.0812206"
       width="8.0812206"
       id="rect3098"
       style="fill:#ffffff;stroke:#000000;stroke-width:1;stroke-linecap:round;stroke-linejoin:bevel;stroke-miterlimit:4;stroke-opacity:1;stroke-dasharray:none;stroke-dashoffset:0" />
    <path
       sodipodi:type="arc"
       style="fill:#ffffff;fill-opacity:1;fill-rule:nonzero;stroke:#000000;stroke-width:1;stroke-linecap:round;stroke-linejoin:bevel;stroke-miterlimit:4;stroke-opacity:1;stroke-dasharray:none;stroke-dashoffset:0"
       id="path3100"
       sodipodi:cx="453.21429"
       sodipodi:cy="364.45163"
       sodipodi:rx="6.0714288"
       sodipodi:ry="5.3571429"
       d="m 459.28572,364.45163 c 0,2.95867 -2.71827,5.35714 -6.07143,5.35714 -3.35315,0 -6.07142,-2.39847 -6.07142,-5.35714 0,-2.95867 2.71827,-5.35714 6.07142,-5.35714 3.35316,0 6.07143,2.39847 6.07143,5.35714 z"
       transform="matrix(0.66373999,0,0,0.66373999,359.02225,401.57458)" />
    <g
       id="g3135"
       transform="translate(-7.8571429,-7.5)">
      <path
         transform="translate(0,308.2677)"
         d="m 426.78571,448.20163 c 0,4.83249 -4.15735,8.75 -9.28571,8.75 -5.12836,0 -9.28571,-3.91751 -9.28571,-8.75 0,-4.83249 4.15735,-8.75 9.28571,-8.75 5.12836,0 9.28571,3.91751 9.28571,8.75 z"
         sodipodi:ry="8.75"
         sodipodi:rx="9.2857141"
         sodipodi:cy="448.20163"
         sodipodi:cx="417.5"
         id="path3123"
         style="fill:none;stroke:#000000;stroke-width:1.05053782;stroke-linecap:round;stroke-linejoin:bevel;stroke-miterlimit:4;stroke-opacity:1;stroke-dasharray:none;stroke-dashoffset:0"
         sodipodi:type="arc" />
      <text
         sodipodi:linespacing="125%"
         id="text3125"
         y="759.61932"
         x="414.147"
         style="font-size:14px;font-style:normal;font-variant:normal;font-weight:normal;font-stretch:normal;text-align:start;line-height:125%;letter-spacing:0px;word-spacing:0px;writing-mode:lr-tb;text-anchor:start;fill:#000000;fill-opacity:1;stroke:none;font-family:TeX Gyre Termes;-inkscape-font-specification:TeX Gyre Termes"
         xml:space="preserve"><tspan
           y="759.61932"
           x="414.147"
           id="tspan3127"
           sodipodi:role="line">a</tspan></text>
    </g>
    <g
       id="g3140"
       transform="translate(-82.5,-3.2142857)">
      <path
         sodipodi:type="arc"
         style="fill:none;stroke:#000000;stroke-width:1.05053782;stroke-linecap:round;stroke-linejoin:bevel;stroke-miterlimit:4;stroke-opacity:1;stroke-dasharray:none;stroke-dashoffset:0"
         id="path3129"
         sodipodi:cx="417.5"
         sodipodi:cy="448.20163"
         sodipodi:rx="9.2857141"
         sodipodi:ry="8.75"
         d="m 426.78571,448.20163 c 0,4.83249 -4.15735,8.75 -9.28571,8.75 -5.12836,0 -9.28571,-3.91751 -9.28571,-8.75 0,-4.83249 4.15735,-8.75 9.28571,-8.75 5.12836,0 9.28571,3.91751 9.28571,8.75 z"
         transform="translate(284.82202,305.02368)" />
      <text
         xml:space="preserve"
         style="font-size:14px;font-style:normal;font-variant:normal;font-weight:normal;font-stretch:normal;text-align:start;line-height:125%;letter-spacing:0px;word-spacing:0px;writing-mode:lr-tb;text-anchor:start;fill:#000000;fill-opacity:1;stroke:none;font-family:TeX Gyre Termes;-inkscape-font-specification:TeX Gyre Termes"
         x="699.02502"
         y="757.93628"
         id="text3131"
         sodipodi:linespacing="125%"><tspan
           sodipodi:role="line"
           id="tspan3133"
           x="699.02502"
           y="757.93628">b</tspan></text>
    </g>
  </g>
</svg>
